<mxfile host="Electron" agent="Mozilla/5.0 (Macintosh; Intel Mac OS X 10_15_7) AppleWebKit/537.36 (KHTML, like Gecko) draw.io/28.1.2 Chrome/138.0.7204.243 Electron/37.4.0 Safari/537.36" version="28.1.2">
  <diagram id="dSpEoSw5NEOlPxEkIJGp" name="Distributed Data">
    <mxGraphModel dx="2831" dy="831" grid="1" gridSize="10" guides="1" tooltips="1" connect="1" arrows="1" fold="1" page="1" pageScale="1" pageWidth="850" pageHeight="1100" math="0" shadow="0">
      <root>
        <mxCell id="0" />
        <mxCell id="1" parent="0" />
        <mxCell id="9JPcaClCMVxvd5P8LPpK-94" value="" style="group" parent="1" vertex="1" connectable="0">
          <mxGeometry x="-1680" y="300" width="790" height="450" as="geometry" />
        </mxCell>
        <mxCell id="9JPcaClCMVxvd5P8LPpK-1" value="" style="shape=table;startSize=0;container=1;collapsible=0;childLayout=tableLayout;fontSize=16;sketch=1;curveFitting=1;jiggle=2;" parent="9JPcaClCMVxvd5P8LPpK-94" vertex="1">
          <mxGeometry x="247.49961099699405" y="242.39023902699094" width="144.94806703197392" height="177.88264069250704" as="geometry" />
        </mxCell>
        <mxCell id="9JPcaClCMVxvd5P8LPpK-2" value="" style="shape=tableRow;horizontal=0;startSize=0;swimlaneHead=0;swimlaneBody=0;strokeColor=#001DBC;top=0;left=0;bottom=0;right=0;collapsible=0;dropTarget=0;fillColor=#0050ef;points=[[0,0.5],[1,0.5]];portConstraint=eastwest;fontSize=16;fontColor=#ffffff;sketch=1;curveFitting=1;jiggle=2;" parent="9JPcaClCMVxvd5P8LPpK-1" vertex="1">
          <mxGeometry width="144.94806703197392" height="30" as="geometry" />
        </mxCell>
        <mxCell id="9JPcaClCMVxvd5P8LPpK-3" value="" style="shape=partialRectangle;html=1;whiteSpace=wrap;connectable=0;strokeColor=#001DBC;overflow=hidden;fillColor=#0050ef;top=0;left=0;bottom=0;right=0;pointerEvents=1;fontSize=16;fontColor=#ffffff;sketch=1;curveFitting=1;jiggle=2;" parent="9JPcaClCMVxvd5P8LPpK-2" vertex="1">
          <mxGeometry width="48" height="30" as="geometry">
            <mxRectangle width="48" height="30" as="alternateBounds" />
          </mxGeometry>
        </mxCell>
        <mxCell id="9JPcaClCMVxvd5P8LPpK-4" value="" style="shape=partialRectangle;html=1;whiteSpace=wrap;connectable=0;strokeColor=#001DBC;overflow=hidden;fillColor=#0050ef;top=0;left=0;bottom=0;right=0;pointerEvents=1;fontSize=16;fontColor=#ffffff;sketch=1;curveFitting=1;jiggle=2;" parent="9JPcaClCMVxvd5P8LPpK-2" vertex="1">
          <mxGeometry x="48" width="49" height="30" as="geometry">
            <mxRectangle width="49" height="30" as="alternateBounds" />
          </mxGeometry>
        </mxCell>
        <mxCell id="9JPcaClCMVxvd5P8LPpK-5" value="" style="shape=partialRectangle;html=1;whiteSpace=wrap;connectable=0;strokeColor=#001DBC;overflow=hidden;fillColor=#0050ef;top=0;left=0;bottom=0;right=0;pointerEvents=1;fontSize=16;fontColor=#ffffff;sketch=1;curveFitting=1;jiggle=2;" parent="9JPcaClCMVxvd5P8LPpK-2" vertex="1">
          <mxGeometry x="97" width="48" height="30" as="geometry">
            <mxRectangle width="48" height="30" as="alternateBounds" />
          </mxGeometry>
        </mxCell>
        <mxCell id="9JPcaClCMVxvd5P8LPpK-6" value="" style="shape=tableRow;horizontal=0;startSize=0;swimlaneHead=0;swimlaneBody=0;strokeColor=#001DBC;top=0;left=0;bottom=0;right=0;collapsible=0;dropTarget=0;fillColor=#0050ef;points=[[0,0.5],[1,0.5]];portConstraint=eastwest;fontSize=16;fontColor=#ffffff;sketch=1;curveFitting=1;jiggle=2;" parent="9JPcaClCMVxvd5P8LPpK-1" vertex="1">
          <mxGeometry y="30" width="144.94806703197392" height="30" as="geometry" />
        </mxCell>
        <mxCell id="9JPcaClCMVxvd5P8LPpK-7" value="" style="shape=partialRectangle;html=1;whiteSpace=wrap;connectable=0;strokeColor=#001DBC;overflow=hidden;fillColor=#0050ef;top=0;left=0;bottom=0;right=0;pointerEvents=1;fontSize=16;fontColor=#ffffff;sketch=1;curveFitting=1;jiggle=2;" parent="9JPcaClCMVxvd5P8LPpK-6" vertex="1">
          <mxGeometry width="48" height="30" as="geometry">
            <mxRectangle width="48" height="30" as="alternateBounds" />
          </mxGeometry>
        </mxCell>
        <mxCell id="9JPcaClCMVxvd5P8LPpK-8" value="" style="shape=partialRectangle;html=1;whiteSpace=wrap;connectable=0;strokeColor=#001DBC;overflow=hidden;fillColor=#0050ef;top=0;left=0;bottom=0;right=0;pointerEvents=1;fontSize=16;fontColor=#ffffff;sketch=1;curveFitting=1;jiggle=2;" parent="9JPcaClCMVxvd5P8LPpK-6" vertex="1">
          <mxGeometry x="48" width="49" height="30" as="geometry">
            <mxRectangle width="49" height="30" as="alternateBounds" />
          </mxGeometry>
        </mxCell>
        <mxCell id="9JPcaClCMVxvd5P8LPpK-9" value="" style="shape=partialRectangle;html=1;whiteSpace=wrap;connectable=0;strokeColor=#001DBC;overflow=hidden;fillColor=#0050ef;top=0;left=0;bottom=0;right=0;pointerEvents=1;fontSize=16;fontColor=#ffffff;sketch=1;curveFitting=1;jiggle=2;" parent="9JPcaClCMVxvd5P8LPpK-6" vertex="1">
          <mxGeometry x="97" width="48" height="30" as="geometry">
            <mxRectangle width="48" height="30" as="alternateBounds" />
          </mxGeometry>
        </mxCell>
        <mxCell id="9JPcaClCMVxvd5P8LPpK-10" value="" style="shape=tableRow;horizontal=0;startSize=0;swimlaneHead=0;swimlaneBody=0;strokeColor=#001DBC;top=0;left=0;bottom=0;right=0;collapsible=0;dropTarget=0;fillColor=#0050ef;points=[[0,0.5],[1,0.5]];portConstraint=eastwest;fontSize=16;fontColor=#ffffff;sketch=1;curveFitting=1;jiggle=2;" parent="9JPcaClCMVxvd5P8LPpK-1" vertex="1">
          <mxGeometry y="60" width="144.94806703197392" height="29" as="geometry" />
        </mxCell>
        <mxCell id="9JPcaClCMVxvd5P8LPpK-11" value="" style="shape=partialRectangle;html=1;whiteSpace=wrap;connectable=0;strokeColor=#001DBC;overflow=hidden;fillColor=#0050ef;top=0;left=0;bottom=0;right=0;pointerEvents=1;fontSize=16;fontColor=#ffffff;sketch=1;curveFitting=1;jiggle=2;" parent="9JPcaClCMVxvd5P8LPpK-10" vertex="1">
          <mxGeometry width="48" height="29" as="geometry">
            <mxRectangle width="48" height="29" as="alternateBounds" />
          </mxGeometry>
        </mxCell>
        <mxCell id="9JPcaClCMVxvd5P8LPpK-12" value="" style="shape=partialRectangle;html=1;whiteSpace=wrap;connectable=0;strokeColor=#001DBC;overflow=hidden;fillColor=#0050ef;top=0;left=0;bottom=0;right=0;pointerEvents=1;fontSize=16;fontColor=#ffffff;sketch=1;curveFitting=1;jiggle=2;" parent="9JPcaClCMVxvd5P8LPpK-10" vertex="1">
          <mxGeometry x="48" width="49" height="29" as="geometry">
            <mxRectangle width="49" height="29" as="alternateBounds" />
          </mxGeometry>
        </mxCell>
        <mxCell id="9JPcaClCMVxvd5P8LPpK-13" value="" style="shape=partialRectangle;html=1;whiteSpace=wrap;connectable=0;strokeColor=#001DBC;overflow=hidden;fillColor=#0050ef;top=0;left=0;bottom=0;right=0;pointerEvents=1;fontSize=16;fontColor=#ffffff;sketch=1;curveFitting=1;jiggle=2;" parent="9JPcaClCMVxvd5P8LPpK-10" vertex="1">
          <mxGeometry x="97" width="48" height="29" as="geometry">
            <mxRectangle width="48" height="29" as="alternateBounds" />
          </mxGeometry>
        </mxCell>
        <mxCell id="9JPcaClCMVxvd5P8LPpK-14" value="" style="shape=tableRow;horizontal=0;startSize=0;swimlaneHead=0;swimlaneBody=0;strokeColor=#001DBC;top=0;left=0;bottom=0;right=0;collapsible=0;dropTarget=0;fillColor=#0050ef;points=[[0,0.5],[1,0.5]];portConstraint=eastwest;fontSize=16;fontColor=#ffffff;sketch=1;curveFitting=1;jiggle=2;" parent="9JPcaClCMVxvd5P8LPpK-1" vertex="1">
          <mxGeometry y="89" width="144.94806703197392" height="29" as="geometry" />
        </mxCell>
        <mxCell id="9JPcaClCMVxvd5P8LPpK-15" value="" style="shape=partialRectangle;html=1;whiteSpace=wrap;connectable=0;strokeColor=#001DBC;overflow=hidden;fillColor=#0050ef;top=0;left=0;bottom=0;right=0;pointerEvents=1;fontSize=16;fontColor=#ffffff;sketch=1;curveFitting=1;jiggle=2;" parent="9JPcaClCMVxvd5P8LPpK-14" vertex="1">
          <mxGeometry width="48" height="29" as="geometry">
            <mxRectangle width="48" height="29" as="alternateBounds" />
          </mxGeometry>
        </mxCell>
        <mxCell id="9JPcaClCMVxvd5P8LPpK-16" value="" style="shape=partialRectangle;html=1;whiteSpace=wrap;connectable=0;strokeColor=#001DBC;overflow=hidden;fillColor=#0050ef;top=0;left=0;bottom=0;right=0;pointerEvents=1;fontSize=16;fontColor=#ffffff;sketch=1;curveFitting=1;jiggle=2;" parent="9JPcaClCMVxvd5P8LPpK-14" vertex="1">
          <mxGeometry x="48" width="49" height="29" as="geometry">
            <mxRectangle width="49" height="29" as="alternateBounds" />
          </mxGeometry>
        </mxCell>
        <mxCell id="9JPcaClCMVxvd5P8LPpK-17" value="" style="shape=partialRectangle;html=1;whiteSpace=wrap;connectable=0;strokeColor=#001DBC;overflow=hidden;fillColor=#0050ef;top=0;left=0;bottom=0;right=0;pointerEvents=1;fontSize=16;fontColor=#ffffff;sketch=1;curveFitting=1;jiggle=2;" parent="9JPcaClCMVxvd5P8LPpK-14" vertex="1">
          <mxGeometry x="97" width="48" height="29" as="geometry">
            <mxRectangle width="48" height="29" as="alternateBounds" />
          </mxGeometry>
        </mxCell>
        <mxCell id="9JPcaClCMVxvd5P8LPpK-18" value="" style="shape=tableRow;horizontal=0;startSize=0;swimlaneHead=0;swimlaneBody=0;strokeColor=#001DBC;top=0;left=0;bottom=0;right=0;collapsible=0;dropTarget=0;fillColor=#0050ef;points=[[0,0.5],[1,0.5]];portConstraint=eastwest;fontSize=16;fontColor=#ffffff;sketch=1;curveFitting=1;jiggle=2;" parent="9JPcaClCMVxvd5P8LPpK-1" vertex="1">
          <mxGeometry y="118" width="144.94806703197392" height="30" as="geometry" />
        </mxCell>
        <mxCell id="9JPcaClCMVxvd5P8LPpK-19" value="" style="shape=partialRectangle;html=1;whiteSpace=wrap;connectable=0;strokeColor=#001DBC;overflow=hidden;fillColor=#0050ef;top=0;left=0;bottom=0;right=0;pointerEvents=1;fontSize=16;fontColor=#ffffff;sketch=1;curveFitting=1;jiggle=2;" parent="9JPcaClCMVxvd5P8LPpK-18" vertex="1">
          <mxGeometry width="48" height="30" as="geometry">
            <mxRectangle width="48" height="30" as="alternateBounds" />
          </mxGeometry>
        </mxCell>
        <mxCell id="9JPcaClCMVxvd5P8LPpK-20" value="" style="shape=partialRectangle;html=1;whiteSpace=wrap;connectable=0;strokeColor=#001DBC;overflow=hidden;fillColor=#0050ef;top=0;left=0;bottom=0;right=0;pointerEvents=1;fontSize=16;fontColor=#ffffff;sketch=1;curveFitting=1;jiggle=2;" parent="9JPcaClCMVxvd5P8LPpK-18" vertex="1">
          <mxGeometry x="48" width="49" height="30" as="geometry">
            <mxRectangle width="49" height="30" as="alternateBounds" />
          </mxGeometry>
        </mxCell>
        <mxCell id="9JPcaClCMVxvd5P8LPpK-21" value="" style="shape=partialRectangle;html=1;whiteSpace=wrap;connectable=0;strokeColor=#001DBC;overflow=hidden;fillColor=#0050ef;top=0;left=0;bottom=0;right=0;pointerEvents=1;fontSize=16;fontColor=#ffffff;sketch=1;curveFitting=1;jiggle=2;" parent="9JPcaClCMVxvd5P8LPpK-18" vertex="1">
          <mxGeometry x="97" width="48" height="30" as="geometry">
            <mxRectangle width="48" height="30" as="alternateBounds" />
          </mxGeometry>
        </mxCell>
        <mxCell id="9JPcaClCMVxvd5P8LPpK-22" value="" style="shape=tableRow;horizontal=0;startSize=0;swimlaneHead=0;swimlaneBody=0;strokeColor=#001DBC;top=0;left=0;bottom=0;right=0;collapsible=0;dropTarget=0;fillColor=#0050ef;points=[[0,0.5],[1,0.5]];portConstraint=eastwest;fontSize=16;fontColor=#ffffff;sketch=1;curveFitting=1;jiggle=2;" parent="9JPcaClCMVxvd5P8LPpK-1" vertex="1">
          <mxGeometry y="148" width="144.94806703197392" height="30" as="geometry" />
        </mxCell>
        <mxCell id="9JPcaClCMVxvd5P8LPpK-23" value="" style="shape=partialRectangle;html=1;whiteSpace=wrap;connectable=0;strokeColor=#001DBC;overflow=hidden;fillColor=#0050ef;top=0;left=0;bottom=0;right=0;pointerEvents=1;fontSize=16;fontColor=#ffffff;sketch=1;curveFitting=1;jiggle=2;" parent="9JPcaClCMVxvd5P8LPpK-22" vertex="1">
          <mxGeometry width="48" height="30" as="geometry">
            <mxRectangle width="48" height="30" as="alternateBounds" />
          </mxGeometry>
        </mxCell>
        <mxCell id="9JPcaClCMVxvd5P8LPpK-24" value="" style="shape=partialRectangle;html=1;whiteSpace=wrap;connectable=0;strokeColor=#001DBC;overflow=hidden;fillColor=#0050ef;top=0;left=0;bottom=0;right=0;pointerEvents=1;fontSize=16;fontColor=#ffffff;sketch=1;curveFitting=1;jiggle=2;" parent="9JPcaClCMVxvd5P8LPpK-22" vertex="1">
          <mxGeometry x="48" width="49" height="30" as="geometry">
            <mxRectangle width="49" height="30" as="alternateBounds" />
          </mxGeometry>
        </mxCell>
        <mxCell id="9JPcaClCMVxvd5P8LPpK-25" value="" style="shape=partialRectangle;html=1;whiteSpace=wrap;connectable=0;strokeColor=#001DBC;overflow=hidden;fillColor=#0050ef;top=0;left=0;bottom=0;right=0;pointerEvents=1;fontSize=16;fontColor=#ffffff;sketch=1;curveFitting=1;jiggle=2;" parent="9JPcaClCMVxvd5P8LPpK-22" vertex="1">
          <mxGeometry x="97" width="48" height="30" as="geometry">
            <mxRectangle width="48" height="30" as="alternateBounds" />
          </mxGeometry>
        </mxCell>
        <mxCell id="9JPcaClCMVxvd5P8LPpK-26" value="" style="shape=table;startSize=0;container=1;collapsible=0;childLayout=tableLayout;fontSize=16;sketch=1;curveFitting=1;jiggle=2;" parent="9JPcaClCMVxvd5P8LPpK-94" vertex="1">
          <mxGeometry x="247.5023077052179" y="32.01382184054068" width="144.94806703197392" height="177.88264069250704" as="geometry" />
        </mxCell>
        <mxCell id="9JPcaClCMVxvd5P8LPpK-27" value="" style="shape=tableRow;horizontal=0;startSize=0;swimlaneHead=0;swimlaneBody=0;strokeColor=inherit;top=0;left=0;bottom=0;right=0;collapsible=0;dropTarget=0;fillColor=none;points=[[0,0.5],[1,0.5]];portConstraint=eastwest;fontSize=16;" parent="9JPcaClCMVxvd5P8LPpK-26" vertex="1">
          <mxGeometry width="144.94806703197392" height="30" as="geometry" />
        </mxCell>
        <mxCell id="9JPcaClCMVxvd5P8LPpK-28" value="" style="shape=partialRectangle;html=1;whiteSpace=wrap;connectable=0;strokeColor=inherit;overflow=hidden;fillColor=none;top=0;left=0;bottom=0;right=0;pointerEvents=1;fontSize=16;" parent="9JPcaClCMVxvd5P8LPpK-27" vertex="1">
          <mxGeometry width="48" height="30" as="geometry">
            <mxRectangle width="48" height="30" as="alternateBounds" />
          </mxGeometry>
        </mxCell>
        <mxCell id="9JPcaClCMVxvd5P8LPpK-29" value="" style="shape=partialRectangle;html=1;whiteSpace=wrap;connectable=0;strokeColor=inherit;overflow=hidden;fillColor=none;top=0;left=0;bottom=0;right=0;pointerEvents=1;fontSize=16;" parent="9JPcaClCMVxvd5P8LPpK-27" vertex="1">
          <mxGeometry x="48" width="49" height="30" as="geometry">
            <mxRectangle width="49" height="30" as="alternateBounds" />
          </mxGeometry>
        </mxCell>
        <mxCell id="9JPcaClCMVxvd5P8LPpK-30" value="" style="shape=partialRectangle;html=1;whiteSpace=wrap;connectable=0;strokeColor=inherit;overflow=hidden;fillColor=none;top=0;left=0;bottom=0;right=0;pointerEvents=1;fontSize=16;" parent="9JPcaClCMVxvd5P8LPpK-27" vertex="1">
          <mxGeometry x="97" width="48" height="30" as="geometry">
            <mxRectangle width="48" height="30" as="alternateBounds" />
          </mxGeometry>
        </mxCell>
        <mxCell id="9JPcaClCMVxvd5P8LPpK-31" value="" style="shape=tableRow;horizontal=0;startSize=0;swimlaneHead=0;swimlaneBody=0;strokeColor=inherit;top=0;left=0;bottom=0;right=0;collapsible=0;dropTarget=0;fillColor=none;points=[[0,0.5],[1,0.5]];portConstraint=eastwest;fontSize=16;" parent="9JPcaClCMVxvd5P8LPpK-26" vertex="1">
          <mxGeometry y="30" width="144.94806703197392" height="30" as="geometry" />
        </mxCell>
        <mxCell id="9JPcaClCMVxvd5P8LPpK-32" value="" style="shape=partialRectangle;html=1;whiteSpace=wrap;connectable=0;strokeColor=inherit;overflow=hidden;fillColor=none;top=0;left=0;bottom=0;right=0;pointerEvents=1;fontSize=16;" parent="9JPcaClCMVxvd5P8LPpK-31" vertex="1">
          <mxGeometry width="48" height="30" as="geometry">
            <mxRectangle width="48" height="30" as="alternateBounds" />
          </mxGeometry>
        </mxCell>
        <mxCell id="9JPcaClCMVxvd5P8LPpK-33" value="" style="shape=partialRectangle;html=1;whiteSpace=wrap;connectable=0;strokeColor=inherit;overflow=hidden;fillColor=none;top=0;left=0;bottom=0;right=0;pointerEvents=1;fontSize=16;" parent="9JPcaClCMVxvd5P8LPpK-31" vertex="1">
          <mxGeometry x="48" width="49" height="30" as="geometry">
            <mxRectangle width="49" height="30" as="alternateBounds" />
          </mxGeometry>
        </mxCell>
        <mxCell id="9JPcaClCMVxvd5P8LPpK-34" value="" style="shape=partialRectangle;html=1;whiteSpace=wrap;connectable=0;strokeColor=inherit;overflow=hidden;fillColor=none;top=0;left=0;bottom=0;right=0;pointerEvents=1;fontSize=16;" parent="9JPcaClCMVxvd5P8LPpK-31" vertex="1">
          <mxGeometry x="97" width="48" height="30" as="geometry">
            <mxRectangle width="48" height="30" as="alternateBounds" />
          </mxGeometry>
        </mxCell>
        <mxCell id="9JPcaClCMVxvd5P8LPpK-35" value="" style="shape=tableRow;horizontal=0;startSize=0;swimlaneHead=0;swimlaneBody=0;strokeColor=inherit;top=0;left=0;bottom=0;right=0;collapsible=0;dropTarget=0;fillColor=none;points=[[0,0.5],[1,0.5]];portConstraint=eastwest;fontSize=16;" parent="9JPcaClCMVxvd5P8LPpK-26" vertex="1">
          <mxGeometry y="60" width="144.94806703197392" height="29" as="geometry" />
        </mxCell>
        <mxCell id="9JPcaClCMVxvd5P8LPpK-36" value="" style="shape=partialRectangle;html=1;whiteSpace=wrap;connectable=0;strokeColor=inherit;overflow=hidden;fillColor=none;top=0;left=0;bottom=0;right=0;pointerEvents=1;fontSize=16;" parent="9JPcaClCMVxvd5P8LPpK-35" vertex="1">
          <mxGeometry width="48" height="29" as="geometry">
            <mxRectangle width="48" height="29" as="alternateBounds" />
          </mxGeometry>
        </mxCell>
        <mxCell id="9JPcaClCMVxvd5P8LPpK-37" value="" style="shape=partialRectangle;html=1;whiteSpace=wrap;connectable=0;strokeColor=inherit;overflow=hidden;fillColor=none;top=0;left=0;bottom=0;right=0;pointerEvents=1;fontSize=16;" parent="9JPcaClCMVxvd5P8LPpK-35" vertex="1">
          <mxGeometry x="48" width="49" height="29" as="geometry">
            <mxRectangle width="49" height="29" as="alternateBounds" />
          </mxGeometry>
        </mxCell>
        <mxCell id="9JPcaClCMVxvd5P8LPpK-38" value="" style="shape=partialRectangle;html=1;whiteSpace=wrap;connectable=0;strokeColor=inherit;overflow=hidden;fillColor=none;top=0;left=0;bottom=0;right=0;pointerEvents=1;fontSize=16;" parent="9JPcaClCMVxvd5P8LPpK-35" vertex="1">
          <mxGeometry x="97" width="48" height="29" as="geometry">
            <mxRectangle width="48" height="29" as="alternateBounds" />
          </mxGeometry>
        </mxCell>
        <mxCell id="9JPcaClCMVxvd5P8LPpK-39" value="" style="shape=tableRow;horizontal=0;startSize=0;swimlaneHead=0;swimlaneBody=0;strokeColor=inherit;top=0;left=0;bottom=0;right=0;collapsible=0;dropTarget=0;fillColor=none;points=[[0,0.5],[1,0.5]];portConstraint=eastwest;fontSize=16;" parent="9JPcaClCMVxvd5P8LPpK-26" vertex="1">
          <mxGeometry y="89" width="144.94806703197392" height="29" as="geometry" />
        </mxCell>
        <mxCell id="9JPcaClCMVxvd5P8LPpK-40" value="" style="shape=partialRectangle;html=1;whiteSpace=wrap;connectable=0;strokeColor=inherit;overflow=hidden;fillColor=none;top=0;left=0;bottom=0;right=0;pointerEvents=1;fontSize=16;" parent="9JPcaClCMVxvd5P8LPpK-39" vertex="1">
          <mxGeometry width="48" height="29" as="geometry">
            <mxRectangle width="48" height="29" as="alternateBounds" />
          </mxGeometry>
        </mxCell>
        <mxCell id="9JPcaClCMVxvd5P8LPpK-41" value="" style="shape=partialRectangle;html=1;whiteSpace=wrap;connectable=0;strokeColor=inherit;overflow=hidden;fillColor=none;top=0;left=0;bottom=0;right=0;pointerEvents=1;fontSize=16;" parent="9JPcaClCMVxvd5P8LPpK-39" vertex="1">
          <mxGeometry x="48" width="49" height="29" as="geometry">
            <mxRectangle width="49" height="29" as="alternateBounds" />
          </mxGeometry>
        </mxCell>
        <mxCell id="9JPcaClCMVxvd5P8LPpK-42" value="" style="shape=partialRectangle;html=1;whiteSpace=wrap;connectable=0;strokeColor=inherit;overflow=hidden;fillColor=none;top=0;left=0;bottom=0;right=0;pointerEvents=1;fontSize=16;" parent="9JPcaClCMVxvd5P8LPpK-39" vertex="1">
          <mxGeometry x="97" width="48" height="29" as="geometry">
            <mxRectangle width="48" height="29" as="alternateBounds" />
          </mxGeometry>
        </mxCell>
        <mxCell id="9JPcaClCMVxvd5P8LPpK-43" value="" style="shape=tableRow;horizontal=0;startSize=0;swimlaneHead=0;swimlaneBody=0;strokeColor=inherit;top=0;left=0;bottom=0;right=0;collapsible=0;dropTarget=0;fillColor=none;points=[[0,0.5],[1,0.5]];portConstraint=eastwest;fontSize=16;" parent="9JPcaClCMVxvd5P8LPpK-26" vertex="1">
          <mxGeometry y="118" width="144.94806703197392" height="30" as="geometry" />
        </mxCell>
        <mxCell id="9JPcaClCMVxvd5P8LPpK-44" value="" style="shape=partialRectangle;html=1;whiteSpace=wrap;connectable=0;strokeColor=inherit;overflow=hidden;fillColor=none;top=0;left=0;bottom=0;right=0;pointerEvents=1;fontSize=16;" parent="9JPcaClCMVxvd5P8LPpK-43" vertex="1">
          <mxGeometry width="48" height="30" as="geometry">
            <mxRectangle width="48" height="30" as="alternateBounds" />
          </mxGeometry>
        </mxCell>
        <mxCell id="9JPcaClCMVxvd5P8LPpK-45" value="" style="shape=partialRectangle;html=1;whiteSpace=wrap;connectable=0;strokeColor=inherit;overflow=hidden;fillColor=none;top=0;left=0;bottom=0;right=0;pointerEvents=1;fontSize=16;" parent="9JPcaClCMVxvd5P8LPpK-43" vertex="1">
          <mxGeometry x="48" width="49" height="30" as="geometry">
            <mxRectangle width="49" height="30" as="alternateBounds" />
          </mxGeometry>
        </mxCell>
        <mxCell id="9JPcaClCMVxvd5P8LPpK-46" value="" style="shape=partialRectangle;html=1;whiteSpace=wrap;connectable=0;strokeColor=inherit;overflow=hidden;fillColor=none;top=0;left=0;bottom=0;right=0;pointerEvents=1;fontSize=16;" parent="9JPcaClCMVxvd5P8LPpK-43" vertex="1">
          <mxGeometry x="97" width="48" height="30" as="geometry">
            <mxRectangle width="48" height="30" as="alternateBounds" />
          </mxGeometry>
        </mxCell>
        <mxCell id="9JPcaClCMVxvd5P8LPpK-47" value="" style="shape=tableRow;horizontal=0;startSize=0;swimlaneHead=0;swimlaneBody=0;strokeColor=inherit;top=0;left=0;bottom=0;right=0;collapsible=0;dropTarget=0;fillColor=none;points=[[0,0.5],[1,0.5]];portConstraint=eastwest;fontSize=16;" parent="9JPcaClCMVxvd5P8LPpK-26" vertex="1">
          <mxGeometry y="148" width="144.94806703197392" height="30" as="geometry" />
        </mxCell>
        <mxCell id="9JPcaClCMVxvd5P8LPpK-48" value="" style="shape=partialRectangle;html=1;whiteSpace=wrap;connectable=0;strokeColor=inherit;overflow=hidden;fillColor=none;top=0;left=0;bottom=0;right=0;pointerEvents=1;fontSize=16;" parent="9JPcaClCMVxvd5P8LPpK-47" vertex="1">
          <mxGeometry width="48" height="30" as="geometry">
            <mxRectangle width="48" height="30" as="alternateBounds" />
          </mxGeometry>
        </mxCell>
        <mxCell id="9JPcaClCMVxvd5P8LPpK-49" value="" style="shape=partialRectangle;html=1;whiteSpace=wrap;connectable=0;strokeColor=inherit;overflow=hidden;fillColor=none;top=0;left=0;bottom=0;right=0;pointerEvents=1;fontSize=16;" parent="9JPcaClCMVxvd5P8LPpK-47" vertex="1">
          <mxGeometry x="48" width="49" height="30" as="geometry">
            <mxRectangle width="49" height="30" as="alternateBounds" />
          </mxGeometry>
        </mxCell>
        <mxCell id="9JPcaClCMVxvd5P8LPpK-50" value="" style="shape=partialRectangle;html=1;whiteSpace=wrap;connectable=0;strokeColor=inherit;overflow=hidden;fillColor=none;top=0;left=0;bottom=0;right=0;pointerEvents=1;fontSize=16;" parent="9JPcaClCMVxvd5P8LPpK-47" vertex="1">
          <mxGeometry x="97" width="48" height="30" as="geometry">
            <mxRectangle width="48" height="30" as="alternateBounds" />
          </mxGeometry>
        </mxCell>
        <mxCell id="9JPcaClCMVxvd5P8LPpK-51" value="" style="shape=table;startSize=0;container=1;collapsible=0;childLayout=tableLayout;fontSize=16;sketch=1;curveFitting=1;jiggle=2;fillColor=#008a00;fontColor=#ffffff;strokeColor=#005700;" parent="9JPcaClCMVxvd5P8LPpK-94" vertex="1">
          <mxGeometry x="428.6998263164397" y="101.07170360529594" width="144.94806703197392" height="177.88264069250704" as="geometry" />
        </mxCell>
        <mxCell id="9JPcaClCMVxvd5P8LPpK-52" value="" style="shape=tableRow;horizontal=0;startSize=0;swimlaneHead=0;swimlaneBody=0;strokeColor=inherit;top=0;left=0;bottom=0;right=0;collapsible=0;dropTarget=0;fillColor=none;points=[[0,0.5],[1,0.5]];portConstraint=eastwest;fontSize=16;" parent="9JPcaClCMVxvd5P8LPpK-51" vertex="1">
          <mxGeometry width="144.94806703197392" height="30" as="geometry" />
        </mxCell>
        <mxCell id="9JPcaClCMVxvd5P8LPpK-53" value="" style="shape=partialRectangle;html=1;whiteSpace=wrap;connectable=0;strokeColor=inherit;overflow=hidden;fillColor=none;top=0;left=0;bottom=0;right=0;pointerEvents=1;fontSize=16;" parent="9JPcaClCMVxvd5P8LPpK-52" vertex="1">
          <mxGeometry width="48" height="30" as="geometry">
            <mxRectangle width="48" height="30" as="alternateBounds" />
          </mxGeometry>
        </mxCell>
        <mxCell id="9JPcaClCMVxvd5P8LPpK-54" value="" style="shape=partialRectangle;html=1;whiteSpace=wrap;connectable=0;strokeColor=inherit;overflow=hidden;fillColor=none;top=0;left=0;bottom=0;right=0;pointerEvents=1;fontSize=16;" parent="9JPcaClCMVxvd5P8LPpK-52" vertex="1">
          <mxGeometry x="48" width="49" height="30" as="geometry">
            <mxRectangle width="49" height="30" as="alternateBounds" />
          </mxGeometry>
        </mxCell>
        <mxCell id="9JPcaClCMVxvd5P8LPpK-55" value="" style="shape=partialRectangle;html=1;whiteSpace=wrap;connectable=0;strokeColor=inherit;overflow=hidden;fillColor=none;top=0;left=0;bottom=0;right=0;pointerEvents=1;fontSize=16;" parent="9JPcaClCMVxvd5P8LPpK-52" vertex="1">
          <mxGeometry x="97" width="48" height="30" as="geometry">
            <mxRectangle width="48" height="30" as="alternateBounds" />
          </mxGeometry>
        </mxCell>
        <mxCell id="9JPcaClCMVxvd5P8LPpK-56" value="" style="shape=tableRow;horizontal=0;startSize=0;swimlaneHead=0;swimlaneBody=0;strokeColor=inherit;top=0;left=0;bottom=0;right=0;collapsible=0;dropTarget=0;fillColor=none;points=[[0,0.5],[1,0.5]];portConstraint=eastwest;fontSize=16;" parent="9JPcaClCMVxvd5P8LPpK-51" vertex="1">
          <mxGeometry y="30" width="144.94806703197392" height="30" as="geometry" />
        </mxCell>
        <mxCell id="9JPcaClCMVxvd5P8LPpK-57" value="" style="shape=partialRectangle;html=1;whiteSpace=wrap;connectable=0;strokeColor=inherit;overflow=hidden;fillColor=none;top=0;left=0;bottom=0;right=0;pointerEvents=1;fontSize=16;" parent="9JPcaClCMVxvd5P8LPpK-56" vertex="1">
          <mxGeometry width="48" height="30" as="geometry">
            <mxRectangle width="48" height="30" as="alternateBounds" />
          </mxGeometry>
        </mxCell>
        <mxCell id="9JPcaClCMVxvd5P8LPpK-58" value="" style="shape=partialRectangle;html=1;whiteSpace=wrap;connectable=0;strokeColor=inherit;overflow=hidden;fillColor=none;top=0;left=0;bottom=0;right=0;pointerEvents=1;fontSize=16;" parent="9JPcaClCMVxvd5P8LPpK-56" vertex="1">
          <mxGeometry x="48" width="49" height="30" as="geometry">
            <mxRectangle width="49" height="30" as="alternateBounds" />
          </mxGeometry>
        </mxCell>
        <mxCell id="9JPcaClCMVxvd5P8LPpK-59" value="" style="shape=partialRectangle;html=1;whiteSpace=wrap;connectable=0;strokeColor=inherit;overflow=hidden;fillColor=none;top=0;left=0;bottom=0;right=0;pointerEvents=1;fontSize=16;" parent="9JPcaClCMVxvd5P8LPpK-56" vertex="1">
          <mxGeometry x="97" width="48" height="30" as="geometry">
            <mxRectangle width="48" height="30" as="alternateBounds" />
          </mxGeometry>
        </mxCell>
        <mxCell id="9JPcaClCMVxvd5P8LPpK-60" value="" style="shape=tableRow;horizontal=0;startSize=0;swimlaneHead=0;swimlaneBody=0;strokeColor=inherit;top=0;left=0;bottom=0;right=0;collapsible=0;dropTarget=0;fillColor=none;points=[[0,0.5],[1,0.5]];portConstraint=eastwest;fontSize=16;" parent="9JPcaClCMVxvd5P8LPpK-51" vertex="1">
          <mxGeometry y="60" width="144.94806703197392" height="29" as="geometry" />
        </mxCell>
        <mxCell id="9JPcaClCMVxvd5P8LPpK-61" value="" style="shape=partialRectangle;html=1;whiteSpace=wrap;connectable=0;strokeColor=inherit;overflow=hidden;fillColor=none;top=0;left=0;bottom=0;right=0;pointerEvents=1;fontSize=16;" parent="9JPcaClCMVxvd5P8LPpK-60" vertex="1">
          <mxGeometry width="48" height="29" as="geometry">
            <mxRectangle width="48" height="29" as="alternateBounds" />
          </mxGeometry>
        </mxCell>
        <mxCell id="9JPcaClCMVxvd5P8LPpK-62" value="" style="shape=partialRectangle;html=1;whiteSpace=wrap;connectable=0;strokeColor=inherit;overflow=hidden;fillColor=none;top=0;left=0;bottom=0;right=0;pointerEvents=1;fontSize=16;" parent="9JPcaClCMVxvd5P8LPpK-60" vertex="1">
          <mxGeometry x="48" width="49" height="29" as="geometry">
            <mxRectangle width="49" height="29" as="alternateBounds" />
          </mxGeometry>
        </mxCell>
        <mxCell id="9JPcaClCMVxvd5P8LPpK-63" value="" style="shape=partialRectangle;html=1;whiteSpace=wrap;connectable=0;strokeColor=inherit;overflow=hidden;fillColor=none;top=0;left=0;bottom=0;right=0;pointerEvents=1;fontSize=16;" parent="9JPcaClCMVxvd5P8LPpK-60" vertex="1">
          <mxGeometry x="97" width="48" height="29" as="geometry">
            <mxRectangle width="48" height="29" as="alternateBounds" />
          </mxGeometry>
        </mxCell>
        <mxCell id="9JPcaClCMVxvd5P8LPpK-64" value="" style="shape=tableRow;horizontal=0;startSize=0;swimlaneHead=0;swimlaneBody=0;strokeColor=inherit;top=0;left=0;bottom=0;right=0;collapsible=0;dropTarget=0;fillColor=none;points=[[0,0.5],[1,0.5]];portConstraint=eastwest;fontSize=16;" parent="9JPcaClCMVxvd5P8LPpK-51" vertex="1">
          <mxGeometry y="89" width="144.94806703197392" height="29" as="geometry" />
        </mxCell>
        <mxCell id="9JPcaClCMVxvd5P8LPpK-65" value="" style="shape=partialRectangle;html=1;whiteSpace=wrap;connectable=0;strokeColor=inherit;overflow=hidden;fillColor=none;top=0;left=0;bottom=0;right=0;pointerEvents=1;fontSize=16;" parent="9JPcaClCMVxvd5P8LPpK-64" vertex="1">
          <mxGeometry width="48" height="29" as="geometry">
            <mxRectangle width="48" height="29" as="alternateBounds" />
          </mxGeometry>
        </mxCell>
        <mxCell id="9JPcaClCMVxvd5P8LPpK-66" value="" style="shape=partialRectangle;html=1;whiteSpace=wrap;connectable=0;strokeColor=inherit;overflow=hidden;fillColor=none;top=0;left=0;bottom=0;right=0;pointerEvents=1;fontSize=16;" parent="9JPcaClCMVxvd5P8LPpK-64" vertex="1">
          <mxGeometry x="48" width="49" height="29" as="geometry">
            <mxRectangle width="49" height="29" as="alternateBounds" />
          </mxGeometry>
        </mxCell>
        <mxCell id="9JPcaClCMVxvd5P8LPpK-67" value="" style="shape=partialRectangle;html=1;whiteSpace=wrap;connectable=0;strokeColor=inherit;overflow=hidden;fillColor=none;top=0;left=0;bottom=0;right=0;pointerEvents=1;fontSize=16;" parent="9JPcaClCMVxvd5P8LPpK-64" vertex="1">
          <mxGeometry x="97" width="48" height="29" as="geometry">
            <mxRectangle width="48" height="29" as="alternateBounds" />
          </mxGeometry>
        </mxCell>
        <mxCell id="9JPcaClCMVxvd5P8LPpK-68" value="" style="shape=tableRow;horizontal=0;startSize=0;swimlaneHead=0;swimlaneBody=0;strokeColor=inherit;top=0;left=0;bottom=0;right=0;collapsible=0;dropTarget=0;fillColor=none;points=[[0,0.5],[1,0.5]];portConstraint=eastwest;fontSize=16;" parent="9JPcaClCMVxvd5P8LPpK-51" vertex="1">
          <mxGeometry y="118" width="144.94806703197392" height="30" as="geometry" />
        </mxCell>
        <mxCell id="9JPcaClCMVxvd5P8LPpK-69" value="" style="shape=partialRectangle;html=1;whiteSpace=wrap;connectable=0;strokeColor=inherit;overflow=hidden;fillColor=none;top=0;left=0;bottom=0;right=0;pointerEvents=1;fontSize=16;" parent="9JPcaClCMVxvd5P8LPpK-68" vertex="1">
          <mxGeometry width="48" height="30" as="geometry">
            <mxRectangle width="48" height="30" as="alternateBounds" />
          </mxGeometry>
        </mxCell>
        <mxCell id="9JPcaClCMVxvd5P8LPpK-70" value="" style="shape=partialRectangle;html=1;whiteSpace=wrap;connectable=0;strokeColor=inherit;overflow=hidden;fillColor=none;top=0;left=0;bottom=0;right=0;pointerEvents=1;fontSize=16;" parent="9JPcaClCMVxvd5P8LPpK-68" vertex="1">
          <mxGeometry x="48" width="49" height="30" as="geometry">
            <mxRectangle width="49" height="30" as="alternateBounds" />
          </mxGeometry>
        </mxCell>
        <mxCell id="9JPcaClCMVxvd5P8LPpK-71" value="" style="shape=partialRectangle;html=1;whiteSpace=wrap;connectable=0;strokeColor=inherit;overflow=hidden;fillColor=none;top=0;left=0;bottom=0;right=0;pointerEvents=1;fontSize=16;" parent="9JPcaClCMVxvd5P8LPpK-68" vertex="1">
          <mxGeometry x="97" width="48" height="30" as="geometry">
            <mxRectangle width="48" height="30" as="alternateBounds" />
          </mxGeometry>
        </mxCell>
        <mxCell id="9JPcaClCMVxvd5P8LPpK-72" value="" style="shape=tableRow;horizontal=0;startSize=0;swimlaneHead=0;swimlaneBody=0;strokeColor=inherit;top=0;left=0;bottom=0;right=0;collapsible=0;dropTarget=0;fillColor=none;points=[[0,0.5],[1,0.5]];portConstraint=eastwest;fontSize=16;" parent="9JPcaClCMVxvd5P8LPpK-51" vertex="1">
          <mxGeometry y="148" width="144.94806703197392" height="30" as="geometry" />
        </mxCell>
        <mxCell id="9JPcaClCMVxvd5P8LPpK-73" value="" style="shape=partialRectangle;html=1;whiteSpace=wrap;connectable=0;strokeColor=inherit;overflow=hidden;fillColor=none;top=0;left=0;bottom=0;right=0;pointerEvents=1;fontSize=16;" parent="9JPcaClCMVxvd5P8LPpK-72" vertex="1">
          <mxGeometry width="48" height="30" as="geometry">
            <mxRectangle width="48" height="30" as="alternateBounds" />
          </mxGeometry>
        </mxCell>
        <mxCell id="9JPcaClCMVxvd5P8LPpK-74" value="" style="shape=partialRectangle;html=1;whiteSpace=wrap;connectable=0;strokeColor=inherit;overflow=hidden;fillColor=none;top=0;left=0;bottom=0;right=0;pointerEvents=1;fontSize=16;" parent="9JPcaClCMVxvd5P8LPpK-72" vertex="1">
          <mxGeometry x="48" width="49" height="30" as="geometry">
            <mxRectangle width="49" height="30" as="alternateBounds" />
          </mxGeometry>
        </mxCell>
        <mxCell id="9JPcaClCMVxvd5P8LPpK-75" value="" style="shape=partialRectangle;html=1;whiteSpace=wrap;connectable=0;strokeColor=inherit;overflow=hidden;fillColor=none;top=0;left=0;bottom=0;right=0;pointerEvents=1;fontSize=16;" parent="9JPcaClCMVxvd5P8LPpK-72" vertex="1">
          <mxGeometry x="97" width="48" height="30" as="geometry">
            <mxRectangle width="48" height="30" as="alternateBounds" />
          </mxGeometry>
        </mxCell>
        <mxCell id="9JPcaClCMVxvd5P8LPpK-76" value="" style="shape=curlyBracket;whiteSpace=wrap;html=1;rounded=1;labelPosition=left;verticalLabelPosition=middle;align=right;verticalAlign=middle;sketch=1;curveFitting=1;jiggle=2;strokeWidth=4;" parent="9JPcaClCMVxvd5P8LPpK-94" vertex="1">
          <mxGeometry x="220.98025723220826" y="32.01382184054068" width="8.83921028928833" height="141.77549672239448" as="geometry" />
        </mxCell>
        <mxCell id="9JPcaClCMVxvd5P8LPpK-77" value="" style="shape=curlyBracket;whiteSpace=wrap;html=1;rounded=1;labelPosition=left;verticalLabelPosition=middle;align=right;verticalAlign=middle;sketch=1;curveFitting=1;jiggle=2;strokeWidth=4;" parent="9JPcaClCMVxvd5P8LPpK-94" vertex="1">
          <mxGeometry x="220.98025723220826" y="187.50952792316687" width="8.83921028928833" height="173.78931856293514" as="geometry" />
        </mxCell>
        <mxCell id="9JPcaClCMVxvd5P8LPpK-78" value="" style="shape=curlyBracket;whiteSpace=wrap;html=1;rounded=1;flipH=1;labelPosition=right;verticalLabelPosition=middle;align=left;verticalAlign=middle;strokeWidth=4;sketch=1;curveFitting=1;jiggle=2;" parent="9JPcaClCMVxvd5P8LPpK-94" vertex="1">
          <mxGeometry x="580.7272767959539" y="96.49880583362977" width="8.83921028928833" height="128.05528736216272" as="geometry" />
        </mxCell>
        <mxCell id="9JPcaClCMVxvd5P8LPpK-79" value="" style="shape=curlyBracket;whiteSpace=wrap;html=1;rounded=1;flipH=1;labelPosition=right;verticalLabelPosition=middle;align=left;verticalAlign=middle;strokeWidth=4;sketch=1;curveFitting=1;jiggle=2;" parent="9JPcaClCMVxvd5P8LPpK-94" vertex="1">
          <mxGeometry x="411.02327845190734" y="365.392042278571" width="8.83921028928833" height="54.880837440926875" as="geometry" />
        </mxCell>
        <mxCell id="9JPcaClCMVxvd5P8LPpK-80" value="" style="shape=curlyBracket;whiteSpace=wrap;html=1;rounded=1;flipH=1;labelPosition=right;verticalLabelPosition=middle;align=left;verticalAlign=middle;strokeWidth=4;sketch=1;curveFitting=1;jiggle=2;" parent="9JPcaClCMVxvd5P8LPpK-94" vertex="1">
          <mxGeometry x="580.7272767959539" y="237.81696224401648" width="8.83921028928833" height="41.16062808069516" as="geometry" />
        </mxCell>
        <mxCell id="9JPcaClCMVxvd5P8LPpK-81" style="rounded=0;orthogonalLoop=1;jettySize=auto;html=1;exitX=0.1;exitY=0.5;exitDx=0;exitDy=0;entryX=1;entryY=0.5;entryDx=0;entryDy=0;dashed=1;flowAnimation=1;fontSize=20;fontFamily=Poppins;fontSource=https%3A%2F%2Ffonts.googleapis.com%2Fcss%3Ffamily%3DPoppins;strokeWidth=3;dashPattern=8 8;strokeColor=#333333;fillColor=#60a917;entryPerimeter=0;exitPerimeter=0;" parent="9JPcaClCMVxvd5P8LPpK-94" source="9JPcaClCMVxvd5P8LPpK-76" target="9JPcaClCMVxvd5P8LPpK-90" edge="1">
          <mxGeometry relative="1" as="geometry">
            <mxPoint x="428.701699030484" y="-9.146806240154481" as="sourcePoint" />
            <mxPoint x="110.49012861610413" y="59.45424056100412" as="targetPoint" />
          </mxGeometry>
        </mxCell>
        <mxCell id="9JPcaClCMVxvd5P8LPpK-82" style="rounded=0;orthogonalLoop=1;jettySize=auto;html=1;exitX=0.1;exitY=0.5;exitDx=0;exitDy=0;entryX=1;entryY=0.5;entryDx=0;entryDy=0;dashed=1;flowAnimation=1;fontSize=20;fontFamily=Poppins;fontSource=https%3A%2F%2Ffonts.googleapis.com%2Fcss%3Ffamily%3DPoppins;strokeWidth=3;dashPattern=8 8;strokeColor=#333333;fillColor=#60a917;entryPerimeter=0;exitPerimeter=0;" parent="9JPcaClCMVxvd5P8LPpK-94" source="9JPcaClCMVxvd5P8LPpK-77" target="9JPcaClCMVxvd5P8LPpK-91" edge="1">
          <mxGeometry relative="1" as="geometry">
            <mxPoint x="292.57786057544376" y="235.5302606839779" as="sourcePoint" />
            <mxPoint x="110.49012861610413" y="393.3126683266427" as="targetPoint" />
          </mxGeometry>
        </mxCell>
        <mxCell id="9JPcaClCMVxvd5P8LPpK-83" style="rounded=0;orthogonalLoop=1;jettySize=auto;html=1;exitX=0.1;exitY=0.5;exitDx=0;exitDy=0;entryX=0;entryY=0.5;entryDx=0;entryDy=0;dashed=1;flowAnimation=1;fontSize=20;fontFamily=Poppins;fontSource=https%3A%2F%2Ffonts.googleapis.com%2Fcss%3Ffamily%3DPoppins;strokeWidth=3;dashPattern=8 8;strokeColor=#333333;fillColor=#60a917;entryPerimeter=0;exitPerimeter=0;" parent="9JPcaClCMVxvd5P8LPpK-94" source="9JPcaClCMVxvd5P8LPpK-79" target="9JPcaClCMVxvd5P8LPpK-93" edge="1">
          <mxGeometry relative="1" as="geometry">
            <mxPoint x="358.87193774510627" y="365.8722496061792" as="sourcePoint" />
            <mxPoint x="676.1995871305572" y="393.3126683266427" as="targetPoint" />
          </mxGeometry>
        </mxCell>
        <mxCell id="9JPcaClCMVxvd5P8LPpK-84" style="rounded=0;orthogonalLoop=1;jettySize=auto;html=1;exitX=0.1;exitY=0.5;exitDx=0;exitDy=0;entryX=0;entryY=0.5;entryDx=0;entryDy=0;dashed=1;flowAnimation=1;fontSize=20;fontFamily=Poppins;fontSource=https%3A%2F%2Ffonts.googleapis.com%2Fcss%3Ffamily%3DPoppins;strokeWidth=3;dashPattern=8 8;strokeColor=#333333;fillColor=#60a917;entryPerimeter=0;exitPerimeter=0;" parent="9JPcaClCMVxvd5P8LPpK-94" source="9JPcaClCMVxvd5P8LPpK-80" target="9JPcaClCMVxvd5P8LPpK-93" edge="1">
          <mxGeometry relative="1" as="geometry">
            <mxPoint x="747.7971904737929" y="301.8446059250978" as="sourcePoint" />
            <mxPoint x="676.1995871305572" y="393.3126683266427" as="targetPoint" />
          </mxGeometry>
        </mxCell>
        <mxCell id="9JPcaClCMVxvd5P8LPpK-85" style="rounded=0;orthogonalLoop=1;jettySize=auto;html=1;exitX=0.1;exitY=0.5;exitDx=0;exitDy=0;entryX=0;entryY=0.5;entryDx=0;entryDy=0;dashed=1;flowAnimation=1;fontSize=20;fontFamily=Poppins;fontSource=https%3A%2F%2Ffonts.googleapis.com%2Fcss%3Ffamily%3DPoppins;strokeWidth=3;dashPattern=8 8;strokeColor=#333333;fillColor=#60a917;entryPerimeter=0;exitPerimeter=0;" parent="9JPcaClCMVxvd5P8LPpK-94" source="9JPcaClCMVxvd5P8LPpK-78" target="9JPcaClCMVxvd5P8LPpK-92" edge="1">
          <mxGeometry relative="1" as="geometry">
            <mxPoint x="742.4936643002197" y="219.5233497637075" as="sourcePoint" />
            <mxPoint x="676.1995871305572" y="59.45424056100412" as="targetPoint" />
          </mxGeometry>
        </mxCell>
        <mxCell id="9JPcaClCMVxvd5P8LPpK-86" value="Distribute Data" style="text;html=1;align=center;verticalAlign=middle;whiteSpace=wrap;rounded=0;fontFamily=Poppins;fontSource=https%3A%2F%2Ffonts.googleapis.com%2Fcss%3Ffamily%3DPoppins;fontSize=16;" parent="9JPcaClCMVxvd5P8LPpK-94" vertex="1">
          <mxGeometry x="573.6470693542341" y="44.590680420753095" width="72.92348488662873" height="29.72712028050206" as="geometry" />
        </mxCell>
        <mxCell id="9JPcaClCMVxvd5P8LPpK-87" value="Distribute Data" style="text;html=1;align=center;verticalAlign=middle;whiteSpace=wrap;rounded=0;fontFamily=Poppins;fontSource=https%3A%2F%2Ffonts.googleapis.com%2Fcss%3Ffamily%3DPoppins;fontSize=16;" parent="9JPcaClCMVxvd5P8LPpK-94" vertex="1">
          <mxGeometry x="551.9644865146099" y="343.005234005793" width="72.92348488662873" height="29.72712028050206" as="geometry" />
        </mxCell>
        <mxCell id="9JPcaClCMVxvd5P8LPpK-88" value="Distribute Data" style="text;html=1;align=center;verticalAlign=middle;whiteSpace=wrap;rounded=0;fontFamily=Poppins;fontSource=https%3A%2F%2Ffonts.googleapis.com%2Fcss%3Ffamily%3DPoppins;fontSize=16;" parent="9JPcaClCMVxvd5P8LPpK-94" vertex="1">
          <mxGeometry x="119.32933890539245" y="278.9775903247116" width="72.92348488662873" height="29.72712028050206" as="geometry" />
        </mxCell>
        <mxCell id="9JPcaClCMVxvd5P8LPpK-89" value="Distribute Data" style="text;html=1;align=center;verticalAlign=middle;whiteSpace=wrap;rounded=0;fontFamily=Poppins;fontSource=https%3A%2F%2Ffonts.googleapis.com%2Fcss%3Ffamily%3DPoppins;fontSize=16;" parent="9JPcaClCMVxvd5P8LPpK-94" vertex="1">
          <mxGeometry x="141.42736462861328" y="27.440418720463438" width="72.92348488662873" height="29.72712028050206" as="geometry" />
        </mxCell>
        <mxCell id="9JPcaClCMVxvd5P8LPpK-90" value="" style="sketch=1;aspect=fixed;pointerEvents=1;shadow=0;html=1;strokeColor=#000000;labelPosition=center;verticalLabelPosition=bottom;verticalAlign=top;align=center;fillColor=#0050ef;shape=mxgraph.azure.server_rack;curveFitting=1;jiggle=2;strokeWidth=2;fontColor=#ffffff;" parent="9JPcaClCMVxvd5P8LPpK-94" vertex="1">
          <mxGeometry width="108.89629686524901" height="108.89629686524901" as="geometry" />
        </mxCell>
        <mxCell id="9JPcaClCMVxvd5P8LPpK-91" value="" style="sketch=1;aspect=fixed;pointerEvents=1;shadow=0;html=1;strokeColor=#000000;labelPosition=center;verticalLabelPosition=bottom;verticalAlign=top;align=center;fillColor=#0050ef;shape=mxgraph.azure.server_rack;curveFitting=1;jiggle=2;strokeWidth=2;fontColor=#ffffff;" parent="9JPcaClCMVxvd5P8LPpK-94" vertex="1">
          <mxGeometry y="335.66492199806896" width="108.89629686524901" height="108.89629686524901" as="geometry" />
        </mxCell>
        <mxCell id="9JPcaClCMVxvd5P8LPpK-92" value="" style="sketch=1;aspect=fixed;pointerEvents=1;shadow=0;html=1;strokeColor=#000000;labelPosition=center;verticalLabelPosition=bottom;verticalAlign=top;align=center;fillColor=#0050ef;shape=mxgraph.azure.server_rack;curveFitting=1;jiggle=2;strokeWidth=2;fontColor=#ffffff;" parent="9JPcaClCMVxvd5P8LPpK-94" vertex="1">
          <mxGeometry x="679.5098713838958" width="108.89629686524901" height="108.89629686524901" as="geometry" />
        </mxCell>
        <mxCell id="9JPcaClCMVxvd5P8LPpK-93" value="" style="sketch=1;aspect=fixed;pointerEvents=1;shadow=0;html=1;strokeColor=#000000;labelPosition=center;verticalLabelPosition=bottom;verticalAlign=top;align=center;fillColor=#0050ef;shape=mxgraph.azure.server_rack;curveFitting=1;jiggle=2;strokeWidth=2;fontColor=#ffffff;" parent="9JPcaClCMVxvd5P8LPpK-94" vertex="1">
          <mxGeometry x="679.5098713838958" y="333.85842776563857" width="108.89629686524901" height="108.89629686524901" as="geometry" />
        </mxCell>
      </root>
    </mxGraphModel>
  </diagram>
</mxfile>
